<svg xmlns="http://www.w3.org/2000/svg" width="374" height="72" viewBox="0 0 374 72" fill="none"><path d="M97.8634 47.9166V50.3308H99.2508C99.7736 50.3308 100.216 50.1876 100.558 49.8807C100.779 49.6966 100.9 49.4102 100.9 49.0419C100.9 48.7145 100.779 48.4281 100.538 48.2235C100.296 48.0189 99.8741 47.9166 99.3111 47.9166H97.8634ZM96.1341 46.4026H98.8888C99.8741 46.4026 100.598 46.4844 101.081 46.6481C101.563 46.8118 101.945 47.0982 102.247 47.4869C102.548 47.8961 102.689 48.3872 102.689 48.96C102.689 49.4102 102.609 49.8193 102.428 50.2081C102.307 50.4945 102.086 50.74 101.825 50.9651C101.563 51.1901 101.282 51.3538 101 51.4766C100.538 51.6607 99.9948 51.763 99.3714 51.763H97.8433V55.2411H96.114V46.4026H96.1341Z" fill="#E52136"></path><path d="M113.628 47.7323C113.045 47.7323 112.562 47.9778 112.18 48.4484C111.798 48.9189 111.597 49.7169 111.597 50.8217C111.597 51.906 111.798 52.6835 112.18 53.1541C112.562 53.6246 113.065 53.8702 113.668 53.8702C114.251 53.8702 114.713 53.6451 115.096 53.1541C115.478 52.6835 115.679 51.906 115.679 50.8421C115.679 49.635 115.437 48.7962 114.975 48.3051C114.633 47.9164 114.171 47.7323 113.628 47.7323ZM113.467 46.2183C114.291 46.2183 114.935 46.3615 115.437 46.6275C116.101 46.9957 116.583 47.5072 116.925 48.1824C117.267 48.8576 117.448 49.7578 117.448 50.8626C117.448 52.3562 117.106 53.4814 116.403 54.2384C115.719 55.0159 114.794 55.3842 113.668 55.3842C112.522 55.3842 111.597 54.9954 110.873 54.218C110.169 53.4405 109.807 52.2948 109.807 50.8012C109.807 49.901 109.948 49.0826 110.23 48.387C110.39 47.9983 110.632 47.63 110.933 47.2822C111.255 46.9344 111.617 46.6888 112.059 46.5047C112.502 46.3206 112.964 46.2183 113.467 46.2183Z" fill="#E52136"></path><path d="M124.988 46.4026H126.698V51.7835C126.698 52.4586 126.858 52.9701 127.16 53.2975C127.462 53.6248 127.884 53.809 128.407 53.809C128.749 53.809 129.05 53.7476 129.312 53.6044C129.573 53.4612 129.774 53.2566 129.935 52.9497C130.096 52.6428 130.176 52.254 130.176 51.8039V46.423H131.885V52.0699C131.885 53.1543 131.604 53.9726 131.021 54.566C130.438 55.1388 129.593 55.4457 128.487 55.4457C127.844 55.4457 127.24 55.3434 126.698 55.1184C126.396 55.0161 126.155 54.8729 125.954 54.6887C125.692 54.4228 125.451 54.1159 125.27 53.7067C125.089 53.3179 125.009 52.786 125.009 52.1108V46.4026H124.988Z" fill="#E52136"></path><path d="M141.637 47.9371V50.3104H143.005C143.507 50.3104 143.93 50.1672 144.272 49.8807C144.513 49.6966 144.613 49.4306 144.613 49.0828C144.613 48.7554 144.493 48.469 144.231 48.2644C143.97 48.0394 143.568 47.9371 143.005 47.9371H141.637ZM139.928 46.4026H142.261C143.528 46.4026 144.392 46.5049 144.875 46.689C145.357 46.8732 145.739 47.2005 146.001 47.6302C146.262 48.0803 146.403 48.5713 146.403 49.1442C146.403 49.6761 146.282 50.1058 146.041 50.4536C145.8 50.8014 145.377 51.0878 144.774 51.3334L146.343 55.2207H144.654L143.206 51.6607H141.637V55.2411H139.928V46.4026Z" fill="#E52136"></path><path d="M163.675 46.4026H165.364V53.7067H168.964V55.2411H163.675V46.4026Z" fill="#E52136"></path><path d="M176.403 46.4026H182.214V47.9371H178.112V49.8807H180.626V51.1901H178.112V53.7067H182.214V55.2411H176.403V46.4026Z" fill="#E52136"></path><path d="M201.216 47.8961V53.6862H202.402C202.825 53.6862 203.187 53.5635 203.528 53.3384C203.85 53.1133 204.112 52.8064 204.293 52.4382C204.554 51.9062 204.675 51.3334 204.675 50.6991C204.675 49.8398 204.433 49.1646 203.951 48.6531C203.468 48.1417 202.845 47.8961 202.081 47.8961H201.216ZM199.487 46.4026H202.644C203.388 46.4026 204.071 46.5867 204.654 46.955C205.238 47.3233 205.7 47.8552 206.002 48.5304C206.303 49.2056 206.464 49.9421 206.464 50.74C206.464 51.538 206.323 52.2336 206.062 52.8678C205.801 53.5021 205.459 53.9931 205.037 54.3614C204.735 54.6274 204.353 54.8319 203.87 54.9956C203.388 55.1593 202.885 55.2411 202.362 55.2411H199.487V46.4026Z" fill="#E52136"></path><path d="M217.121 43.9473H218.971L216.739 45.7682H215.573L217.121 43.9473ZM214.105 46.4024H219.916V47.9369H215.814V49.8806H218.328V51.19H215.814V53.7065H219.916V55.241H214.105V46.4024Z" fill="#E52136"></path><path d="M226.652 46.4026H228.321L230.131 52.4586L231.96 46.4026H233.589L230.955 55.2411H229.306L226.652 46.4026Z" fill="#E52136"></path><path d="M240.828 46.4026H246.639V47.9371H242.537V49.8807H245.03V51.1901H242.537V53.7067H246.639V55.2411H240.828V46.4026Z" fill="#E52136"></path><path d="M254.199 46.4026H255.888V53.7067H259.468V55.2411H254.199V46.4026Z" fill="#E52136"></path><path d="M269.903 47.7323C269.32 47.7323 268.838 47.9778 268.456 48.4484C268.074 48.9189 267.893 49.7169 267.893 50.8217C267.893 51.906 268.094 52.6835 268.476 53.1541C268.858 53.6246 269.36 53.8702 269.964 53.8702C270.547 53.8702 271.009 53.6451 271.391 53.1541C271.773 52.6835 271.954 51.906 271.954 50.8421C271.954 49.635 271.733 48.7962 271.251 48.3051C270.909 47.9164 270.446 47.7323 269.903 47.7323ZM269.743 46.2183C270.547 46.2183 271.21 46.3615 271.713 46.6275C272.356 46.9957 272.859 47.5072 273.201 48.1824C273.543 48.8576 273.724 49.7578 273.724 50.8626C273.724 52.3562 273.382 53.4814 272.678 54.2384C271.995 55.0159 271.07 55.3842 269.944 55.3842C268.797 55.3842 267.873 54.9954 267.149 54.218C266.445 53.4405 266.083 52.2948 266.083 50.8012C266.083 49.901 266.224 49.0826 266.505 48.387C266.666 47.9983 266.887 47.63 267.209 47.2822C267.531 46.9344 267.893 46.6888 268.335 46.5047C268.777 46.3206 269.24 46.2183 269.743 46.2183Z" fill="#E52136"></path><path d="M283.034 47.9166V50.3308H284.421C284.944 50.3308 285.386 50.1876 285.728 49.8807C285.949 49.6966 286.07 49.4102 286.07 49.0419C286.07 48.7145 285.949 48.4281 285.708 48.2235C285.467 48.0189 285.044 47.9166 284.461 47.9166H283.034ZM281.304 46.4026H284.059C285.044 46.4026 285.768 46.4844 286.251 46.6481C286.733 46.8118 287.115 47.0982 287.417 47.4869C287.719 47.8961 287.859 48.3872 287.859 48.96C287.859 49.4102 287.779 49.8193 287.598 50.2081C287.457 50.4945 287.256 50.74 286.995 50.9651C286.733 51.1901 286.452 51.3538 286.19 51.4766C285.728 51.6607 285.185 51.763 284.562 51.763H283.034V55.2411H281.304V46.4026Z" fill="#E52136"></path><path d="M297.169 47.9166V50.3308H298.557C299.079 50.3308 299.522 50.1876 299.864 49.8807C300.085 49.6966 300.205 49.4102 300.205 49.0419C300.205 48.7145 300.085 48.4281 299.843 48.2235C299.602 48.0189 299.18 47.9166 298.597 47.9166H297.169ZM295.44 46.4026H298.175C299.16 46.4026 299.884 46.4844 300.366 46.6481C300.849 46.8118 301.231 47.0982 301.532 47.4869C301.834 47.8961 301.975 48.3872 301.975 48.96C301.975 49.4102 301.894 49.8193 301.713 50.2081C301.573 50.4945 301.372 50.74 301.11 50.9651C300.829 51.1901 300.567 51.3538 300.286 51.4766C299.823 51.6607 299.28 51.763 298.657 51.763H297.149V55.2411H295.42V46.4026H295.44Z" fill="#E52136"></path><path d="M309.596 46.4026H315.427V47.9371H311.305V49.8807H313.818V51.1901H311.305V53.7067H315.427V55.2411H309.596V46.4026Z" fill="#E52136"></path><path d="M322.967 46.4026H325.682L327.129 51.8653L328.577 46.4026H331.292V55.2411H329.663V47.3642L327.572 55.2411H326.667L324.576 47.3642V55.2411H322.967V46.4026Z" fill="#E52136"></path><path d="M339.335 46.4026H345.146V47.9371H341.044V49.8807H343.557V51.1901H341.044V53.7067H345.146V55.2411H339.335V46.4026Z" fill="#E52136"></path><path d="M352.726 46.4026H354.536L358.095 52.3154V46.4026H359.784V55.2411H358.095L354.435 49.0623V55.2411H352.726V46.4026Z" fill="#E52136"></path><path d="M367.224 46.4026H373.799V47.9166H371.366V55.2411H369.657V47.9166H367.224V46.4026Z" fill="#E52136"></path><path d="M95.5309 16.2041H107.977V19.7641H99.5323V25.1654H104.398V28.7254H99.5323V36.8274H95.5309V16.2041Z" fill="#0A1A12"></path><path d="M119.117 19.3344C117.75 19.3344 116.624 19.8868 115.719 21.0121C114.834 22.1169 114.372 23.9583 114.372 26.5362C114.372 29.0528 114.834 30.8737 115.739 31.9785C116.644 33.0833 117.81 33.6357 119.218 33.6357C120.565 33.6357 121.671 33.0833 122.575 31.9785C123.46 30.8737 123.923 29.0732 123.923 26.5771C123.923 23.7742 123.38 21.7896 122.294 20.6643C121.449 19.7845 120.404 19.3344 119.117 19.3344ZM118.735 15.7949C120.645 15.7949 122.173 16.1223 123.34 16.7565C124.868 17.6158 126.034 18.8229 126.838 20.3983C127.643 21.9737 128.045 24.0606 128.045 26.6385C128.045 30.1167 127.24 32.7559 125.632 34.5564C124.003 36.3364 121.872 37.2366 119.218 37.2366C116.523 37.2366 114.352 36.3364 112.703 34.495C111.054 32.6741 110.209 30.0144 110.209 26.5158C110.209 24.4084 110.551 22.5261 111.215 20.8484C111.577 19.9278 112.12 19.0685 112.884 18.2705C113.628 17.4726 114.492 16.8588 115.498 16.4292C116.483 16.02 117.569 15.7949 118.735 15.7949Z" fill="#0A1A12"></path><path d="M131.664 16.2041H135.867L144.191 30.0553V16.2041H148.152V36.8274H144.191L135.645 22.4443V36.8274H131.664V16.2041Z" fill="#0A1A12"></path><path d="M156.959 19.6822V33.2265H159.714C160.699 33.2265 161.564 32.9605 162.328 32.4286C163.092 31.8966 163.675 31.1805 164.098 30.3212C164.701 29.0732 165.002 27.7229 165.002 26.2702C165.002 24.2652 164.439 22.6898 163.293 21.4827C162.147 20.296 160.699 19.7027 158.91 19.7027H156.959V19.6822ZM152.918 16.2041H160.277C162.026 16.2041 163.595 16.6542 164.962 17.5135C166.35 18.3933 167.395 19.6209 168.119 21.1962C168.843 22.7716 169.205 24.4902 169.205 26.3521C169.205 28.1934 168.903 29.8507 168.28 31.3442C167.657 32.8173 166.852 33.9835 165.887 34.8224C165.183 35.4157 164.278 35.9067 163.173 36.275C162.067 36.6433 160.88 36.8274 159.654 36.8274H152.938V16.2041H152.918Z" fill="#0A1A12"></path><path d="M179.017 21.7896L176.685 28.9914H181.289L179.017 21.7896ZM176.886 16.2041H181.109L187.724 36.8274H183.803L182.275 31.9989H175.8L174.272 36.8274H170.311L176.886 16.2041Z" fill="#0A1A12"></path><path d="M186.819 16.2041H202.201V19.7641H196.471V36.8274H192.51V19.7641H186.819V16.2041Z" fill="#0A1A12"></path><path d="M209.762 16.2041H205.781V36.8274H209.762V16.2041Z" fill="#0A1A12"></path><path d="M222.631 19.3344C221.263 19.3344 220.137 19.8868 219.232 21.0121C218.328 22.1169 217.885 23.9583 217.885 26.5362C217.885 29.0528 218.348 30.8737 219.252 31.9785C220.157 33.0833 221.324 33.6357 222.731 33.6357C224.078 33.6357 225.184 33.0833 226.089 31.9785C226.974 30.8737 227.436 29.0732 227.436 26.5771C227.436 23.7742 226.893 21.7896 225.808 20.6643C224.963 19.7845 223.897 19.3344 222.631 19.3344ZM222.228 15.7949C224.139 15.7949 225.667 16.1223 226.833 16.7565C228.361 17.6158 229.527 18.8229 230.332 20.3983C231.136 21.9737 231.538 24.0606 231.538 26.6385C231.538 30.1167 230.734 32.7559 229.105 34.5564C227.497 36.3364 225.345 37.2366 222.691 37.2366C219.996 37.2366 217.825 36.3364 216.176 34.495C214.527 32.6741 213.703 30.0144 213.703 26.5158C213.703 24.4084 214.045 22.5261 214.708 20.8484C215.07 19.9278 215.633 19.0685 216.377 18.2705C217.121 17.4726 217.986 16.8588 218.991 16.4292C219.976 16.02 221.062 15.7949 222.228 15.7949Z" fill="#0A1A12"></path><path d="M235.158 16.2041H239.38L247.705 30.0553V16.2041H251.646V36.8274H247.705L239.159 22.4443V36.8274H235.158V16.2041Z" fill="#0A1A12"></path><path d="M263.409 16.2041H278.791V19.7641H273.08V36.8274H269.099V19.7641H263.409V16.2041Z" fill="#0A1A12"></path><path d="M281.968 16.2041H285.969V28.8072C285.969 30.3826 286.331 31.5488 287.035 32.3467C287.759 33.1242 288.724 33.5129 289.951 33.5129C290.735 33.5129 291.439 33.3493 292.042 33.0424C292.645 32.715 293.148 32.2035 293.51 31.5079C293.872 30.7918 294.052 29.912 294.052 28.8072V16.2041H298.074V29.4006C298.074 31.9171 297.39 33.8608 296.043 35.2111C294.696 36.5614 292.705 37.2571 290.111 37.2571C288.603 37.2571 287.216 37.0115 285.909 36.5205C285.225 36.2545 284.642 35.9272 284.18 35.4975C283.536 34.9042 283.013 34.1472 282.591 33.2265C282.169 32.3058 281.948 31.0578 281.948 29.5233V16.2041H281.968Z" fill="#0A1A12"></path><path d="M302.679 16.2041H306.881L315.206 30.0553V16.2041H319.167V36.8274H315.206L306.66 22.4443V36.8274H302.679V16.2041Z" fill="#0A1A12"></path><path d="M328.155 16.2041H324.174V36.8274H328.155V16.2041Z" fill="#0A1A12"></path><path d="M335.715 31.0783C336.379 32.1217 337.042 32.8582 337.706 33.2674C338.349 33.6766 339.113 33.8812 339.998 33.8812C341.064 33.8812 341.888 33.6153 342.471 33.0833C343.055 32.5514 343.356 31.9171 343.356 31.1806C343.356 30.5463 343.115 29.9734 342.652 29.5029C342.17 29.0118 341.104 28.5617 339.455 28.0912C337.203 27.4978 335.595 26.7613 334.609 25.8815C333.403 24.7972 332.8 23.4264 332.8 21.8101C332.8 20.071 333.403 18.6388 334.609 17.4931C335.816 16.3678 337.485 15.7949 339.596 15.7949C340.802 15.7949 341.868 15.9995 342.813 16.4087C343.758 16.8179 344.542 17.3499 345.206 17.9841C345.628 18.4138 346.051 18.9866 346.473 19.7232L343.135 21.1144C342.572 20.296 341.989 19.7027 341.406 19.314C340.823 18.9252 340.159 18.7411 339.435 18.7411C338.55 18.7411 337.827 19.0071 337.304 19.5186C336.761 20.0301 336.499 20.6439 336.499 21.3599C336.499 21.9328 336.721 22.4238 337.163 22.833C337.585 23.2627 338.671 23.6719 340.42 24.122C342.17 24.5721 343.477 25.0836 344.382 25.6565C345.266 26.2293 345.95 27.0068 346.392 27.9275C346.835 28.8686 347.056 29.8302 347.056 30.8123C347.056 31.8557 346.774 32.8992 346.191 33.9631C345.628 35.0065 344.764 35.8249 343.638 36.3978C342.512 36.9706 341.205 37.2366 339.737 37.2366C338.349 37.2366 337.143 37.0115 336.138 36.5205C335.112 36.0499 334.247 35.4157 333.544 34.6178C333.081 34.1063 332.619 33.3902 332.156 32.4695L335.715 31.0783Z" fill="#0A1A12"></path><path d="M355.3 16.2041H351.319V36.8274H355.3V16.2041Z" fill="#0A1A12"></path><path d="M360.387 16.2041H374V19.805H364.389V24.347H370.24V27.3955H364.389V33.2879H374V36.8274H360.387V16.2041Z" fill="#0A1A12"></path><path d="M70.0345 0H0V71.2609H70.0345V0Z" fill="#E52136"></path><path d="M28.2109 13.1965C28.2109 13.1965 29.1359 11.9075 32.6949 11.6211C47.9565 12.2349 35.9322 35.8862 35.9322 35.8862C35.9322 35.8862 12.145 24.8175 23.7672 14.7514C26.7431 12.7464 28.2109 13.1965 28.2109 13.1965Z" fill="#EDE2ED"></path><path d="M36.8772 36.8274C36.8772 36.8274 10.4559 25.7383 23.7671 14.7719C27.1451 12.5623 28.794 12.9919 28.794 12.9919L36.8772 36.8274Z" fill="#0A1A12"></path><path d="M29.3571 58.3917C29.3571 58.3917 28.0099 58.9237 25.3758 57.1437C15.0606 47.9982 36.2942 35.436 36.2942 35.436C36.2942 35.436 46.8707 57.9621 33.2982 59.6193C30.1413 59.5988 29.3571 58.3917 29.3571 58.3917Z" fill="#EDE2ED"></path><path d="M36.3142 35.436C36.3142 35.436 46.8907 57.9621 33.3181 59.6193C30.1412 59.5784 29.3771 58.3917 29.3771 58.3917L36.3142 35.436Z" fill="#0A1A12"></path><path d="M55.3561 49.3691C55.3561 49.3691 56.8038 48.9599 58.0505 45.8705C61.6699 31.9785 36.4952 34.986 36.4952 34.986C36.4952 34.986 40.195 59.9672 52.7019 52.8473C55.3762 50.8218 55.3561 49.3691 55.3561 49.3691Z" fill="#EDE2ED"></path><path d="M55.3561 49.3691C55.3561 49.3691 56.8038 48.9599 58.0505 45.8705C61.6699 31.9785 36.4952 34.986 36.4952 34.986L55.3561 49.3691Z" fill="#0A1A12"></path><path d="M56.0196 20.9711C56.0196 20.9711 56.1201 19.4775 53.6871 17.4316C42.1856 10.0661 36.8169 34.8836 36.8169 34.8836C36.8169 34.8836 60.7851 38.4027 58.3118 24.4901C57.3668 21.3598 56.0196 20.9711 56.0196 20.9711Z" fill="#EDE2ED"></path><path d="M56.2006 21.2166C56.2006 21.2166 56.3213 19.6617 53.8078 17.5543C41.9042 9.96382 36.2137 35.7225 36.2137 35.7225L56.2006 21.2166Z" fill="#0A1A12"></path><path d="M12.0444 35.7225C12.0444 35.7225 11.0793 36.8478 11.783 39.9781C16.5485 52.929 35.5904 36.5204 35.5904 36.5204C35.5904 36.5204 18.6397 18.9251 12.3058 31.5078C11.22 34.5767 12.0444 35.7225 12.0444 35.7225Z" fill="#EDE2ED"></path><path d="M12.0444 35.7224C12.0444 35.7224 11.0793 36.8477 11.783 39.978C16.5485 52.929 35.5904 36.5203 35.5904 36.5203L12.0444 35.7224Z" fill="#0A1A12"></path><path d="M38.2646 35.2725C38.2646 36.275 37.4603 37.0729 36.4952 37.0729C35.5099 37.0729 34.7257 36.275 34.7257 35.2725C34.7257 34.27 35.53 33.4721 36.4952 33.4721C37.4603 33.4516 38.2646 34.27 38.2646 35.2725Z" fill="#E52136"></path></svg>