<svg xmlns="http://www.w3.org/2000/svg" viewBox="0 0 1024 1024">
<g transform="translate(0,1024) scale(0.1,-0.1)" fill="#1A7A4F">
<path d="M6565 8246 l-25 -25 0 -391 c0 -377 1 -391 20 -410 11 -11 26 -20 33
-21 115 -8 306 -4 329 7 41 21 42 33 40 434 -2 471 21 424 -206 428 -165 2
-167 2 -191 -22z"/>
<path d="M5104 7637 c-37 -22 -203 -204 -209 -230 -4 -14 -4 -34 -1 -44 8 -24
483 -495 526 -522 66 -40 100 -23 226 106 130 134 143 107 -218 461 -260 256
-268 262 -324 229z"/>
<path d="M8173 7508 c-76 -78 -167 -169 -202 -202 -36 -34 -74 -72 -85 -85
-12 -13 -40 -43 -63 -66 -82 -81 -74 -112 59 -236 118 -109 127 -114 174 -94
37 15 540 507 550 538 11 35 -17 85 -89 155 -39 39 -84 84 -99 101 -21 25 -34
31 -67 31 -38 0 -45 -6 -178 -142z"/>
<path d="M6595 6885 c-27 -8 -87 -19 -133 -24 -59 -7 -98 -19 -131 -37 -25
-15 -67 -37 -93 -50 -141 -70 -369 -278 -422 -385 -15 -30 -39 -76 -53 -104
-86 -166 -93 -199 -54 -238 l22 -22 523 -2 c597 -2 572 2 601 -80 9 -27 25
-70 36 -98 11 -27 27 -95 35 -150 9 -61 26 -125 44 -165 16 -36 36 -108 45
-160 9 -52 27 -119 40 -150 13 -30 29 -84 35 -119 7 -36 20 -81 30 -100 10
-20 27 -69 39 -108 23 -76 38 -93 86 -93 29 0 85 26 85 39 0 5 28 27 63 48 82
53 211 174 244 232 15 25 39 62 55 81 15 19 28 38 28 43 0 5 16 34 35 65 27
45 38 78 50 152 8 52 25 120 37 150 35 86 33 294 -4 405 -15 44 -32 105 -38
135 -12 57 -84 193 -157 298 -71 101 -340 332 -387 332 -6 0 -33 16 -61 35
-44 30 -63 36 -142 45 -50 5 -126 17 -170 25 -95 18 -220 18 -288 0z"/>
<path d="M8402 5975 c-43 -19 -52 -47 -52 -168 0 -223 -22 -213 444 -209 204
2 378 5 387 8 30 9 43 56 47 182 5 136 -4 172 -44 191 -40 18 -739 14 -782 -4z"/>
<path d="M2043 5520 c-43 -26 -61 -64 -73 -157 -7 -51 -21 -98 -41 -137 -20
-38 -36 -91 -45 -148 -8 -49 -24 -115 -35 -146 -51 -140 -60 -221 -30 -251
l21 -21 1611 0 c1072 0 1617 3 1629 10 37 20 43 79 20 203 -11 62 -27 146 -35
187 -7 41 -17 146 -21 233 -8 171 -19 212 -64 234 -20 10 -334 13 -1465 13
-1411 0 -1441 0 -1472 -20z"/>
<path d="M5564 5521 c-43 -26 -46 -47 -28 -222 8 -85 20 -206 25 -269 26 -335
28 -341 83 -360 18 -6 213 -10 521 -10 561 0 525 -6 525 86 0 35 -9 68 -34
119 -25 51 -37 95 -46 159 -6 49 -22 115 -34 145 -13 31 -29 81 -36 111 -22
93 -69 203 -101 233 l-29 27 -408 0 c-382 0 -409 -1 -438 -19z"/>
<path d="M7992 4751 c-35 -22 -222 -214 -222 -227 0 -41 48 -98 278 -326 255
-255 277 -271 330 -249 71 29 232 207 232 256 0 19 -516 534 -546 546 -31 11
-55 11 -72 0z"/>
<path d="M1790 4180 c-63 -3 -123 -9 -132 -14 -33 -15 -87 -171 -88 -252 0
-12 -14 -48 -31 -80 -20 -37 -37 -89 -46 -144 -8 -47 -28 -124 -44 -171 -49
-144 -36 -191 57 -205 59 -9 3633 1 3655 10 45 19 48 84 19 396 -42 448 -40
441 -107 459 -40 10 -3065 11 -3283 1z"/>
<path d="M5680 4177 c-55 -14 -63 -41 -40 -139 15 -63 23 -156 33 -361 15
-304 17 -316 82 -343 51 -21 1209 -21 1260 0 60 25 70 73 31 147 -16 30 -29
78 -36 135 -8 57 -22 111 -40 152 -16 34 -33 86 -39 116 -5 29 -21 80 -34 112
-13 33 -29 81 -37 107 -23 85 11 80 -606 81 -299 1 -557 -2 -574 -7z"/>
<path d="M9200 3138 c-15 -35 -44 -85 -64 -113 -19 -27 -47 -70 -62 -95 -37
-62 -103 -159 -131 -194 -13 -15 -30 -45 -39 -64 -8 -20 -27 -52 -42 -71 -15
-20 -50 -72 -79 -116 -28 -44 -64 -97 -79 -117 -28 -38 -61 -92 -108 -179 -13
-25 -32 -51 -41 -59 -54 -45 -87 -153 -58 -188 27 -33 596 -36 659 -4 42 22
118 104 134 147 15 39 13 1056 -2 1090 -22 48 -55 34 -88 -37z"/>
<path d="M1284 2830 c-21 -8 -61 -55 -82 -95 -6 -11 -15 -55 -21 -98 -7 -49
-22 -99 -42 -138 -17 -34 -37 -95 -45 -136 -7 -41 -18 -82 -23 -92 -5 -9 -23
-68 -40 -130 -31 -117 -30 -151 4 -165 9 -3 964 -6 2122 -6 l2107 -1 25 26 25
25 -12 107 c-7 60 -17 225 -23 368 -11 277 -17 310 -58 328 -32 13 -3904 21
-3937 7z"/>
<path d="M5782 2830 c-12 -5 -27 -21 -32 -35 -13 -35 6 -448 26 -539 8 -39 19
-104 24 -144 10 -79 30 -126 57 -136 10 -4 361 -7 781 -7 708 0 765 1 783 17
23 21 24 47 4 104 -8 24 -20 83 -25 133 -7 59 -20 112 -39 156 -16 36 -33 84
-37 106 -4 22 -19 74 -35 116 -15 42 -32 103 -38 135 -20 108 51 99 -749 101
-422 2 -706 -1 -720 -7z"/>
</g>
</svg>